<?xml version="1.0" standalone="no"?>
<!DOCTYPE svg PUBLIC "-//W3C//DTD SVG 1.1//EN" "http://www.w3.org/Graphics/SVG/1.1/DTD/svg11.dtd">
<!--Generator: Xara Designer (www.xara.com), SVG filter version: 6.1.0.16-->
<svg stroke-width="0.501" stroke-linejoin="bevel" fill-rule="evenodd" xmlns:xlink="http://www.w3.org/1999/xlink" xmlns="http://www.w3.org/2000/svg" version="1.1" overflow="visible" width="720pt" height="720pt" viewBox="0 0 720 720">
 <defs>
	</defs>
 <g id="Document" fill="none" stroke="black" font-family="Times New Roman" font-size="16" transform="scale(1 -1)">
  <g id="Spread" transform="translate(0 -720)">
   <g id="Layer 1">
    <path d="M 290.802,3.445 L 290.742,3.533 C 288.261,7.146 289.179,12.092 292.791,14.573 L 327.992,39.458 L 297.295,62.677 C 206.393,134.133 126.046,218.247 105.313,314.852 C 82.793,419.786 130.99,535.862 301.248,662.661 L 327.492,681.413 L 314.558,690.089 C 306.893,695.117 299.024,700.168 290.949,705.241 C 287.246,707.567 286.121,712.456 288.434,716.166 L 288.49,716.256 C 290.815,719.984 295.731,721.116 299.451,718.779 C 307.614,713.652 315.574,708.543 323.334,703.451 L 341.53,691.245 L 359.726,703.451 C 367.487,708.543 375.447,713.652 383.612,718.779 C 387.331,721.116 392.247,719.984 394.572,716.256 L 394.628,716.166 C 396.942,712.456 395.816,707.567 392.113,705.241 C 384.037,700.168 376.168,695.117 368.502,690.089 L 355.568,681.413 L 381.812,662.661 C 552.07,535.862 600.267,419.786 577.748,314.852 C 557.014,218.247 476.667,134.133 385.765,62.677 L 355.068,39.458 L 390.271,14.573 C 393.883,12.092 394.801,7.146 392.32,3.533 L 392.26,3.445 C 389.779,-0.168 384.832,-1.087 381.219,1.395 L 341.53,29.451 L 301.843,1.395 C 298.23,-1.087 293.284,-0.168 290.802,3.445 Z M 344.68,29.724 L 344.68,37.911 L 352.805,37.911 L 352.805,41.332 L 344.68,41.332 L 344.68,49.457 L 341.79,49.457 L 376.129,75.441 C 466.144,146.255 542.602,227.266 562.119,318.198 C 582.722,414.193 540.243,524.774 372.313,649.809 L 343.03,670.727 L 344.68,670.727 L 344.68,678.914 L 352.805,678.914 L 352.805,682.335 L 344.68,682.335 L 344.68,690.46 L 341.218,690.46 L 341.218,682.335 L 333.093,682.335 L 333.093,678.914 L 341.218,678.914 L 341.218,671.576 L 310.747,649.809 C 142.817,524.774 100.338,414.193 120.942,318.198 C 140.458,227.266 216.916,146.255 306.931,75.441 L 341.269,49.457 L 341.218,49.457 L 341.218,41.332 L 333.093,41.332 L 333.093,37.911 L 341.218,37.911 L 341.218,29.724 L 344.68,29.724 Z M 341.531,70.215 L 335.576,74.542 C 51.234,282.592 79.398,471.34 340.782,649.273 L 340.782,649.242 L 341.531,649.782 L 342.28,649.242 L 342.28,649.273 C 436.868,584.883 500.915,519.076 530.66,451.46 L 529.974,452.566 L 528.83,454.413 C 501.966,459.21 498.092,474.629 502.789,495.858 L 500.18,499.682 C 475.771,503.514 465.986,516.529 467.128,537.661 L 464.425,540.975 C 438.244,544.875 426.934,558.08 426.638,579.167 L 423.499,582.298 C 399.642,582.569 392.346,595.414 388.445,612.388 L 385.723,614.831 C 367.949,616.932 355.701,625.909 345.74,638.283 L 340.187,637.065 C 336.258,621.445 324.155,618.291 306.985,619.608 L 303.575,616.208 C 304.826,599.17 292.277,590.119 266.662,587.039 L 263.884,584.234 C 262.068,567.724 251.812,557.123 230.021,553.675 L 227.373,550.99 C 224.168,528.718 210.603,517.091 189.331,512.349 L 186.849,509.131 C 187.665,487.175 179.146,474.41 162.754,468.57 L 160.673,465.153 C 163.711,442.669 156.685,428.803 142.402,420.7 L 141.007,416.794 C 147.292,400.504 146.567,385.461 135.158,371.513 L 134.866,367.915 C 146.018,348.591 149.863,329.604 144.87,310.765 L 146.04,307.407 C 159.339,297.475 166.455,285.007 163.854,267.542 L 165.129,264.505 C 180.693,253.2 191.901,241.175 192.406,224.893 L 194.191,222.136 C 207.219,215.794 219.849,212.887 222.593,185.766 L 225.207,182.956 C 242.438,179.953 258.518,177.425 266.339,145.626 L 269.056,143.23 C 286.663,141.176 297.889,131.332 302.046,111.587 L 305.778,109.128 C 318.131,111.605 328.653,103.524 337.13,81.713 L 343.104,81.861 C 349.538,101.216 356.32,107.278 365.583,102.298 L 370.251,104.816 C 371.584,119.902 384.604,128.315 411.115,131.319 L 413.933,134.524 C 413.6,155.357 425.979,165.566 447.84,169.46 L 450.451,172.81 C 449.182,190.808 456.983,204.828 483.79,211.59 L 486.122,215.317 C 481.975,235.22 480.205,248.149 513.698,253.618 L 516.253,257.574 C 511.46,275.478 516.117,290.936 537.029,303.244 L 538.275,307.369 C 531.332,321.673 530.901,337.718 548.194,358.751 L 548.075,362.921 C 539.542,372.174 534.487,382.625 546.288,401.465 C 565.628,297.384 503.747,188.877 347.485,74.542 L 341.531,70.215 Z M 340.036,90.944 L 339.615,91.912 C 332.374,106.74 322.905,115.605 310.802,115.921 L 307.512,115.625 L 306.101,120.767 C 300.984,135.549 291.118,144.595 277.127,148.192 L 271.872,149.157 L 268.759,159.012 C 261.758,176.496 251.188,183.001 239.939,186.298 L 228.522,188.739 L 227.175,196.789 C 223.389,212.206 215.398,218.623 207,223.046 L 198.522,227.103 L 197.944,232.122 C 195.657,243.409 188.853,252.592 180.113,260.578 L 170.291,268.493 L 170.735,273.95 C 170.863,285.761 166.72,295.456 159.647,303.539 L 151.406,311.065 L 152.621,316.953 C 154.499,329.633 152.812,342.25 148.142,354.762 L 201.829,301.075 L 256.852,356.098 L 201.829,411.12 L 147.342,356.632 L 141.286,369.186 L 144.43,373.589 C 150.742,383.862 152.403,394.66 150.63,405.712 L 147.628,416.565 L 151.468,419.118 C 162.453,427.674 168.124,440.251 167.693,457.176 L 167.165,463.587 L 171.725,465.592 C 184.489,472.422 191.725,484.138 193.036,500.689 L 193.148,506.827 L 199.1,508.486 C 215.151,513.957 226.728,524.287 231.722,541.119 L 233.18,547.866 L 239.489,549.223 C 255.415,553.666 265.189,562.873 268.867,576.41 L 269.745,581.107 L 276.787,582.241 C 294.688,585.955 307.311,593.972 309.631,608.723 L 309.792,613.277 L 319.504,613.29 C 329.92,614.338 338.93,618.392 343.882,628.616 L 344.488,630.312 L 349.416,624.995 C 355.601,619.284 362.726,614.648 371.201,611.671 L 382.893,608.998 L 386.553,597.722 C 391.244,587.405 399.167,579.326 413.808,576.782 L 420.54,576.196 L 421.063,570.258 C 423.913,553.504 434.562,542.094 453.391,536.815 L 460.83,535.251 L 460.929,529.203 C 462.508,512.454 471.869,500.886 489.618,495.55 L 496.06,494.108 L 495.139,488.632 C 493.301,471.841 498.205,457.732 517.079,450.93 L 524.438,449.012 L 523.191,443.989 C 519.966,427.889 522.133,413.665 536.021,405.669 L 540.413,403.758 L 537.536,398.836 C 531.126,385.878 532.141,376.035 536.62,367.808 L 541.806,360.781 L 537.116,354.431 C 526.438,338.091 525.497,323.903 529.922,310.964 L 531.497,307.159 L 525.866,303.359 C 511.57,292.226 506.644,278.653 508.585,263.585 L 509.451,259.262 L 505.924,258.579 C 478.604,252.355 475.867,238.945 478.42,222.052 L 479.381,216.848 L 472.096,214.549 C 453.553,207.33 445.267,195.286 444.112,180.17 L 444.113,175.112 L 438.239,173.759 C 422.06,169.081 410.835,159.657 408.18,143.23 L 407.773,137.239 L 400.797,136.201 C 382.474,132.744 369.617,125.546 365.335,112.434 L 364.722,109.366 L 362.992,110.023 C 354.104,111.929 347.397,105.906 342.357,96.494 L 340.036,90.944 Z M 342.053,114.006 L 397.076,169.029 L 342.053,224.051 L 287.031,169.029 L 342.053,114.006 Z M 342.053,122.989 L 296.014,169.029 L 342.053,215.068 L 388.093,169.029 L 342.053,122.989 Z M 343.538,141.922 L 343.538,196.137 L 316.431,169.029 L 343.538,141.922 Z M 286.078,198.408 L 336.101,251.607 L 387.712,199.202 L 358.333,335.772 L 442.499,305.6 L 390.888,360.387 L 446.469,410.409 L 355.157,378.649 L 394.064,517.601 L 341.659,465.196 L 286.872,517.601 L 321.015,381.031 L 235.261,411.203 L 284.49,358.004 L 236.055,305.6 L 323.397,339.742 L 286.078,198.408 Z M 476.399,301.074 L 531.422,356.096 L 476.399,411.119 L 421.377,356.096 L 476.399,301.074 Z M 476.399,310.057 L 430.36,356.096 L 476.399,402.136 L 522.439,356.096 L 476.399,310.057 Z M 201.829,310.058 L 155.79,356.098 L 201.829,402.137 L 247.869,356.098 L 201.829,310.058 Z M 476.399,330.473 L 503.507,357.581 L 449.291,357.581 L 476.399,330.473 Z M 228.937,354.612 L 201.829,381.72 L 174.721,354.612 L 228.937,354.612 Z M 531.242,450.127 C 537.199,436.374 541.74,422.539 544.828,408.624 C 527.272,414.834 525.217,429.305 531.242,450.127 Z M 342.055,491.163 L 397.077,546.186 L 342.055,601.208 L 287.032,546.186 L 342.055,491.163 Z M 342.055,500.146 L 296.015,546.186 L 342.055,592.225 L 388.094,546.186 L 342.055,500.146 Z M 340.57,519.078 L 367.677,546.186 L 340.57,573.293 L 340.57,519.078 Z" fill="#a2876f" stroke="none" stroke-width="0.529" marker-start="none" marker-end="none" stroke-miterlimit="79.8403193612775"/>
   </g>
  </g>
 </g>
</svg>
